# xmcd CD database file
#
# Track frame offsets:
#	150
#	33500
#	53145
#	76275
#	99687
#	119337
#	138520
#	156910
#	176657
#	196002
#
# Disc length: 2847 seconds
#
# Revision: 3
# Processed by: cddbd v1.5PL3 Copyright (c) Steve Scherf et al.
# Submitted via: CDex 1.50beta8
#
DISCID=820b1d0a
DTITLE=松田聖子 - SNOW GARDEN
DYEAR=1987
DGENRE=JPop
TTITLE0=Please Don't Go
TTITLE1=妖精たちのTea Party
TTITLE2=Pearl-White Eve
TTITLE3=恋したら･･･
TTITLE4=一千一秒物語
TTITLE5=瞳はダイアモンド
TTITLE6=ハートのイアリング
TTITLE7=愛されたいの
TTITLE8=Let's Boyhunt
TTITLE9=雪のファンタジー
EXTD=YEAR: 1987
EXTT0=
EXTT1=
EXTT2=
EXTT3=
EXTT4=
EXTT5=
EXTT6=
EXTT7=
EXTT8=
EXTT9=
PLAYORDER=
